<svg xmlns:xlink="http://www.w3.org/1999/xlink" width="264" xmlns="http://www.w3.org/2000/svg" height="264" id="screenshot-389bbc61-ba80-80b6-8003-7a49d439b572" viewBox="0 0 264 264" style="-webkit-print-color-adjust: exact;" fill="none" version="1.1"><g id="shape-389bbc61-ba80-80b6-8003-7a49d439b572" rx="0" ry="0"><g id="shape-389bbc61-ba80-80b6-8003-7a44453d5cab"><g class="fills" id="fills-389bbc61-ba80-80b6-8003-7a44453d5cab"><rect rx="0" ry="0" x="0" y="0" transform="matrix(1.000000, 0.000000, 0.000000, 1.000000, 0.000000, 0.000000)" width="264" height="264" style="fill: rgb(220, 224, 235); fill-opacity: 1;"/></g></g><g id="shape-91b4c886-ebd8-80f1-8003-7b7a8eb9b59f" width="64pt" version="1.1" height="64pt" rx="0" ry="0" style="fill: rgb(0, 0, 0);"><g id="shape-91b4c886-ebd8-80f1-8003-7b7a8ebbc987"><defs id="defs825" rx="0" ry="0" style="fill: rgb(106, 120, 101); fill-opacity: 1;"><g id="shape-91b4c886-ebd8-80f1-8003-7b7a8ebc11f8"><pattern width="6" patternUnits="userSpaceOnUse" height="6" x="0" id="EMFhbasepattern" style="fill: rgb(0, 0, 0);" ry="0" rx="0" y="0"/></g><g id="shape-91b4c886-ebd8-80f1-8003-7b7a8ebc11f9"><pattern width="6" patternUnits="userSpaceOnUse" height="6" x="0" id="EMFhbasepattern-9" style="fill: rgb(0, 0, 0);" ry="0" rx="0" y="0"/></g><g id="shape-91b4c886-ebd8-80f1-8003-7b7a8ebc11fa"><pattern width="6" patternUnits="userSpaceOnUse" height="6" x="0" id="EMFhbasepattern-0" style="fill: rgb(0, 0, 0);" ry="0" rx="0" y="0"/></g><g id="shape-91b4c886-ebd8-80f1-8003-7b7a8ebc5dab"><pattern width="6" patternUnits="userSpaceOnUse" height="6" x="0" id="EMFhbasepattern-7" style="fill: rgb(0, 0, 0);" ry="0" rx="0" y="0"/></g><g id="shape-91b4c886-ebd8-80f1-8003-7b7a8ebc5dac"><pattern width="6" patternUnits="userSpaceOnUse" height="6" x="0" id="EMFhbasepattern-2" style="fill: rgb(0, 0, 0);" ry="0" rx="0" y="0"/></g><g id="shape-91b4c886-ebd8-80f1-8003-7b7a8ebc5dad"><pattern width="6" patternUnits="userSpaceOnUse" height="6" x="0" id="EMFhbasepattern-98" style="fill: rgb(0, 0, 0);" ry="0" rx="0" y="0"/></g><g id="shape-91b4c886-ebd8-80f1-8003-7b7a8ebc5dae"><pattern width="6" patternUnits="userSpaceOnUse" height="6" x="0" id="EMFhbasepattern-6" style="fill: rgb(0, 0, 0);" ry="0" rx="0" y="0"/></g><g id="shape-91b4c886-ebd8-80f1-8003-7b7a8ebca38d"><pattern width="6" patternUnits="userSpaceOnUse" height="6" x="0" id="EMFhbasepattern-01" style="fill: rgb(0, 0, 0);" ry="0" rx="0" y="0"/></g><g id="shape-91b4c886-ebd8-80f1-8003-7b7a8ebca38e"><pattern width="6" patternUnits="userSpaceOnUse" height="6" x="0" id="EMFhbasepattern-07" style="fill: rgb(0, 0, 0);" ry="0" rx="0" y="0"/></g><g id="shape-91b4c886-ebd8-80f1-8003-7b7a8ebce9e1"><pattern width="6" patternUnits="userSpaceOnUse" height="6" x="0" id="EMFhbasepattern-8" style="fill: rgb(0, 0, 0);" ry="0" rx="0" y="0"/></g><g id="shape-91b4c886-ebd8-80f1-8003-7b7a8ebce9e2"><pattern width="6" patternUnits="userSpaceOnUse" height="6" x="0" id="EMFhbasepattern-4" style="fill: rgb(0, 0, 0);" ry="0" rx="0" y="0"/></g><g id="shape-91b4c886-ebd8-80f1-8003-7b7a8ebce9e3"><pattern width="6" patternUnits="userSpaceOnUse" height="6" x="0" id="EMFhbasepattern-40" style="fill: rgb(0, 0, 0);" ry="0" rx="0" y="0"/></g><g id="shape-91b4c886-ebd8-80f1-8003-7b7a8ebce9e4"><pattern width="6" patternUnits="userSpaceOnUse" height="6" x="0" id="EMFhbasepattern-08" style="fill: rgb(0, 0, 0);" ry="0" rx="0" y="0"/></g><g id="shape-91b4c886-ebd8-80f1-8003-7b7a8ebce9e5"><pattern width="6" patternUnits="userSpaceOnUse" height="6" x="0" id="EMFhbasepattern-04" style="fill: rgb(0, 0, 0);" ry="0" rx="0" y="0"/></g><g id="shape-91b4c886-ebd8-80f1-8003-7b7a8ebce9e6"><pattern width="6" patternUnits="userSpaceOnUse" height="6" x="0" id="EMFhbasepattern-014" style="fill: rgb(0, 0, 0);" ry="0" rx="0" y="0"/></g><g id="shape-91b4c886-ebd8-80f1-8003-7b7a8ebd1e1e"><pattern width="6" patternUnits="userSpaceOnUse" height="6" x="0" id="EMFhbasepattern-27" style="fill: rgb(0, 0, 0);" ry="0" rx="0" y="0"/></g><g id="shape-91b4c886-ebd8-80f1-8003-7b7a8ebd1e1f"><pattern width="6" patternUnits="userSpaceOnUse" height="6" x="0" id="EMFhbasepattern-09" style="fill: rgb(0, 0, 0);" ry="0" rx="0" y="0"/></g><g id="shape-91b4c886-ebd8-80f1-8003-7b7a8ebd1e20"><pattern width="6" patternUnits="userSpaceOnUse" height="6" x="0" id="EMFhbasepattern-5" style="fill: rgb(0, 0, 0);" ry="0" rx="0" y="0"/></g><g id="shape-91b4c886-ebd8-80f1-8003-7b7a8ebd1e21"><pattern width="6" patternUnits="userSpaceOnUse" height="6" x="0" id="EMFhbasepattern-018" style="fill: rgb(0, 0, 0);" ry="0" rx="0" y="0"/></g></defs></g><g id="shape-91b4c886-ebd8-80f1-8003-7b7a8ebd5851" rx="0" ry="0" style="fill: rgb(0, 0, 0);"><g id="shape-91b4c886-ebd8-80f1-8003-7b7a8ec3861b"><g class="fills" id="fills-91b4c886-ebd8-80f1-8003-7b7a8ec3861b"><path rx="0" ry="0" d="M142.526,57.558C139.130,63.112,138.784,71.212,144.420,77.076C146.544,79.285,147.034,80.668,147.025,82.155C147.014,83.643,146.284,85.577,144.966,88.212C144.336,89.469,144.848,90.999,146.107,91.624C147.355,92.244,148.869,91.740,149.500,90.498C150.896,87.705,152.090,85.123,152.109,82.195C152.127,79.267,150.758,76.340,148.076,73.550C144.103,69.416,144.477,64.092,146.856,60.202C147.584,59.006,147.207,57.446,146.013,56.715C144.360,56.084,143.338,56.378,142.526,57.558ZZM129.833,66.372C126.437,71.926,126.071,80.021,131.708,85.885C133.831,88.094,134.326,89.482,134.317,90.970C134.306,92.457,133.591,94.406,132.273,97.041C131.654,98.289,132.157,99.803,133.399,100.434C134.651,101.062,136.176,100.558,136.807,99.308C138.203,96.515,139.377,93.932,139.396,91.004C139.414,88.076,138.065,85.154,135.383,82.364C131.410,78.230,131.789,72.906,134.168,69.016C134.895,67.819,134.516,66.258,133.320,65.529C131.655,64.904,130.658,65.374,129.833,66.372ZZM76.670,69.914C75.453,70.613,75.034,72.165,75.732,73.381L77.766,76.898C76.082,76.829,74.302,77.126,72.602,78.108C71.391,78.812,70.979,80.363,71.680,81.575C72.378,82.795,73.935,83.215,75.152,82.513C76.618,81.667,77.974,81.760,79.328,82.289C79.792,82.470,80.215,82.733,80.608,83.008C78.395,85.357,76.860,88.438,76.536,91.961C76.330,94.200,76.624,96.582,77.463,99.015C81.332,105.331,86.205,111.339,91.481,116.762C102.596,128.189,115.277,137.071,122.581,141.285C134.537,148.193,151.041,156.556,184.002,159.712C186.114,159.183,187.993,158.341,189.583,157.217C192.467,155.178,194.378,152.322,195.312,149.241C195.740,149.444,196.172,149.678,196.557,149.985C197.692,150.894,198.466,152.022,198.466,153.715C198.471,155.111,199.604,156.242,201.001,156.244C202.404,156.250,203.545,155.117,203.550,153.715C203.550,151.750,202.920,150.055,202.023,148.630L206.080,148.630C207.483,148.636,208.624,147.503,208.630,146.101C208.635,144.691,207.490,143.546,206.080,143.551L202.023,143.551C202.920,142.127,203.550,140.436,203.550,138.472C203.545,137.070,202.404,135.937,201.001,135.942C199.604,135.945,198.472,137.075,198.466,138.472C198.466,140.165,197.692,141.294,196.557,142.202C196.331,142.383,196.082,142.530,195.832,142.674C195.620,141.112,195.183,139.578,194.488,138.140L194.488,138.135C185.657,137.006,178.063,135.299,171.483,133.284C170.296,140.097,164.572,144.512,160.020,146.384C158.709,146.903,157.226,146.255,156.717,144.940C156.211,143.635,156.856,142.166,158.160,141.657C163.256,139.205,165.491,136.179,166.607,131.687C159.727,129.255,154.103,126.559,149.316,123.979C148.886,131.146,142.727,136.939,137.953,138.844C136.644,139.346,135.178,138.693,134.674,137.386C134.171,136.071,134.834,134.598,136.152,134.102C142.773,131.141,144.250,127.159,144.212,121.136C139.397,118.416,134.121,115.183,130.086,112.213C128.701,119.235,123.124,125.277,118.251,127.297C116.946,127.803,115.477,127.158,114.967,125.854C114.463,124.554,115.100,123.090,116.396,122.575C123.039,119.248,124.696,114.741,125.418,108.572C121.277,105.155,116.984,101.121,112.810,96.455C111.461,103.529,105.777,109.662,100.851,111.737C99.552,112.257,98.077,111.630,97.552,110.333C97.019,109.028,97.651,107.538,98.961,107.015C104.821,103.718,107.802,97.956,108.340,91.123C106.242,88.468,104.212,85.638,102.274,82.646C99.736,80.135,96.717,78.690,93.673,78.276C91.037,77.851,88.224,78.648,86.015,79.332C86.010,79.023,86.013,78.711,86.060,78.405C86.278,76.967,86.880,75.745,88.346,74.898C89.557,74.195,89.970,72.643,89.269,71.431C88.637,70.365,86.747,69.978,85.797,70.493C84.098,71.474,82.953,72.862,82.171,74.347L80.137,70.831C78.635,69.249,77.569,69.450,76.670,69.914ZZM196.408,109.937C195.194,110.641,194.781,112.196,195.485,113.409C196.332,114.876,196.223,116.231,195.694,117.586C195.581,117.874,195.430,118.148,195.272,118.414C193.374,115.983,190.730,114.102,187.613,113.221C186.294,112.848,184.898,112.651,183.452,112.656C174.120,114.088,164.439,119.404,155.630,121.599C165.386,126.480,178.398,131.287,197.415,133.389C198.598,130.402,198.771,127.238,198.109,124.317C198.591,124.279,199.096,124.256,199.592,124.340C201.030,124.558,202.253,125.140,203.099,126.606C203.798,127.823,205.350,128.243,206.566,127.544C207.783,126.846,208.202,125.293,207.504,124.077C206.519,122.371,205.118,121.219,203.620,120.436L207.147,118.398C208.363,117.699,208.783,116.147,208.084,114.931C207.253,113.642,205.678,113.497,204.617,114.013L201.095,116.042C201.158,114.361,200.858,112.580,199.875,110.878C198.921,109.431,197.467,109.411,196.408,109.937ZZM63.922,110.875C62.938,112.579,62.642,114.361,62.712,116.043L59.175,114.010C57.647,113.278,56.216,114.048,55.708,114.927C55.010,116.144,55.429,117.696,56.646,118.395L60.177,120.438C58.686,121.220,57.292,122.370,56.308,124.074C55.606,125.285,56.017,126.836,57.226,127.541C58.443,128.243,59.999,127.823,60.698,126.603C61.545,125.137,62.782,124.556,64.220,124.337C64.710,124.260,65.204,124.276,65.678,124.314C64.938,127.448,65.142,130.873,66.621,134.080C68.470,138.094,72.253,141.636,77.999,143.886C77.999,143.893,77.999,143.894,77.999,143.909C88.414,147.964,98.811,150.720,109.139,152.411L109.139,138.567C106.724,136.829,104.177,134.889,101.570,132.779C100.790,135.061,99.402,137.258,97.364,139.296C96.373,140.281,94.773,140.281,93.782,139.296C92.788,138.304,92.788,136.693,93.782,135.700C95.589,133.658,96.923,131.449,97.190,129.108C94.058,126.389,90.904,123.458,87.840,120.309C85.473,117.875,83.188,115.294,80.930,113.903C78.672,112.512,76.539,112.885,74.626,113.667C72.154,114.678,70.078,116.333,68.506,118.369C68.358,118.115,68.211,117.859,68.104,117.585C67.574,116.230,67.480,114.875,68.327,113.408C69.029,112.191,68.609,110.635,67.390,109.936C66.220,109.357,64.801,109.626,63.922,110.875ZZM114.218,142.064L114.218,168.646C116.918,171.224,120.473,172.991,124.382,173.641L124.382,183.144L139.619,183.144L139.619,173.640C147.064,172.403,153.261,167.141,154.589,159.851C149.490,158.550,144.933,157.117,140.859,155.610C140.659,156.843,139.593,157.747,138.344,157.743C136.942,157.738,135.809,156.596,135.815,155.194L135.815,153.616C133.057,152.456,130.524,151.280,128.186,150.105L128.186,155.194C128.191,156.596,127.059,157.738,125.656,157.743C124.246,157.749,123.101,156.604,123.107,155.194L123.107,147.391C120.041,145.787,117.243,143.951,114.218,142.064ZZM124.114,188.228L123.608,193.288L140.393,193.288L139.887,188.228ZM123.097,198.367L121.847,210.817C121.697,212.315,122.876,213.614,124.382,213.609L139.619,213.609C141.125,213.614,142.304,212.315,142.154,210.817L140.904,198.367Z" style="font: medium sans-serif; vector-effect: none; word-spacing: normal; text-decoration: none solid; isolation: auto; baseline-shift: baseline; color: rgb(0, 0, 0); fill-rule: nonzero; text-transform: none; overflow: visible; font-variation-settings: normal; image-rendering: auto; stroke-dashoffset: 0; text-anchor: start; font-feature-settings: normal; text-indent: 0px; writing-mode: lr-tb; letter-spacing: normal; color-rendering: auto; text-orientation: mixed; stroke-linejoin: round; stroke-dasharray: none; white-space: normal; stroke-miterlimit: 4; text-align: start; display: inline; shape-rendering: auto; text-rendering: auto; stop-color: rgb(0, 0, 0); dominant-baseline: auto; inline-size: 0px; visibility: visible; direction: ltr; shape-margin: 0px; color-interpolation: srgb; clip-rule: nonzero; color-interpolation-filters: linearrgb; fill: rgb(106, 120, 101); fill-opacity: 1;"/></g></g></g></g></g></svg>