<svg xmlns:xlink="http://www.w3.org/1999/xlink" width="265.362" xmlns="http://www.w3.org/2000/svg" height="264" id="screenshot-389bbc61-ba80-80b6-8003-7a49d439b572" viewBox="0 0 265.362 264" style="-webkit-print-color-adjust: exact;" fill="none" version="1.1"><g id="shape-389bbc61-ba80-80b6-8003-7a49d439b572" rx="0" ry="0"><g id="shape-389bbc61-ba80-80b6-8003-7a44453d5cab"><g class="fills" id="fills-389bbc61-ba80-80b6-8003-7a44453d5cab"><rect rx="0" ry="0" x="0" y="0" transform="matrix(1.000000, 0.000000, 0.000000, 1.000000, 0.000000, 0.000000)" width="264" height="264" style="fill: rgb(215, 190, 130); fill-opacity: 1;"/></g></g><g id="shape-389bbc61-ba80-80b6-8003-7a49654a6159" rx="0" ry="0" style="fill: rgb(0, 0, 0);"><g id="shape-389bbc61-ba80-80b6-8003-7a49654a615a" rx="0" ry="0" style="fill: rgb(0, 0, 0);"><g id="shape-389bbc61-ba80-80b6-8003-7a49654abf32"><g class="fills" id="fills-389bbc61-ba80-80b6-8003-7a49654abf32"><path rx="0" ry="0" d="M119.960,216.950C130.594,206.733,135.602,190.082,138.849,180.092C142.097,170.104,152.046,162.412,160.073,157.610C168.100,152.808,173.916,144.589,171.301,134.747C168.879,125.634,156.136,113.755,154.262,112.044C152.553,110.167,140.692,97.408,131.582,94.974C121.744,92.345,113.517,98.150,108.704,106.170C103.892,114.190,96.187,124.129,86.191,127.362C76.199,130.596,59.540,135.582,49.309,146.201C39.357,156.527,34.424,174.592,61.178,202.633L61.147,202.663C61.551,203.067,61.945,203.441,62.346,203.833C62.737,204.234,63.109,204.628,63.514,205.033L63.545,205.003C91.548,231.793,109.618,226.886,119.960,216.950ZZ" style="fill: rgb(224, 159, 101);"/></g></g><g id="shape-389bbc61-ba80-80b6-8003-7a49654ace60" rx="0" ry="0" style="fill: rgb(0, 0, 0);"><g id="shape-389bbc61-ba80-80b6-8003-7a49654ace61" rx="0" ry="0" style="fill: rgb(0, 0, 0);"><g id="shape-389bbc61-ba80-80b6-8003-7a49654b6576"><g class="fills" id="fills-389bbc61-ba80-80b6-8003-7a49654b6576"><path rx="0" ry="0" d="M107.038,159.200C99.565,151.717,99.557,139.563,107.023,132.108C114.487,124.654,126.640,124.679,134.113,132.162C141.587,139.647,141.595,151.800,134.132,159.254C126.667,166.708,114.512,166.685,107.038,159.200ZZM133.311,132.963C126.281,125.923,114.848,125.900,107.827,132.911C100.804,139.925,100.811,151.358,107.841,158.398C114.873,165.440,126.306,165.461,133.329,158.449C140.350,151.437,140.343,140.005,133.311,132.963ZZ" style="fill: rgb(73, 1, 21);"/></g></g></g><g id="shape-389bbc61-ba80-80b6-8003-7a49654b9f89"><g class="fills" id="fills-389bbc61-ba80-80b6-8003-7a49654b9f89"><path rx="0" ry="0" d="M131.757,156.874C125.589,163.033,115.584,163.013,109.411,156.830C103.236,150.647,103.229,140.645,109.398,134.484C115.564,128.327,125.566,128.348,131.741,134.531C137.914,140.714,137.923,150.716,131.757,156.874ZZ" style="fill: rgb(175, 109, 55);"/></g></g><g id="shape-389bbc61-ba80-80b6-8003-7a49654b9f8a"><g class="fills" id="fills-389bbc61-ba80-80b6-8003-7a49654b9f8a"><path rx="0" ry="0" d="M129.425,154.539C124.543,159.414,116.627,159.397,111.740,154.504C106.853,149.611,106.848,141.694,111.729,136.819C116.609,131.946,124.525,131.963,129.412,136.857C134.298,141.750,134.304,149.667,129.425,154.539ZZ" style="fill: rgb(73, 1, 21);"/></g></g></g></g><g id="shape-389bbc61-ba80-80b6-8003-7a49654b9f8b" rx="0" ry="0" style="fill: rgb(0, 0, 0);"><g id="shape-389bbc61-ba80-80b6-8003-7a49654b9f8c" rx="0" ry="0" style="fill: rgb(0, 0, 0);"><g id="shape-389bbc61-ba80-80b6-8003-7a49654bfe83" rx="0" ry="0" style="fill: rgb(0, 0, 0);"><g id="shape-389bbc61-ba80-80b6-8003-7a49654c1325"><g class="fills" id="fills-389bbc61-ba80-80b6-8003-7a49654c1325"><path rx="0" ry="0" d="M211.604,38.731C211.650,39.162,211.571,39.581,211.399,39.956L212.567,41.003L211.560,42.117L210.402,41.071C210.116,41.231,209.795,41.344,209.447,41.382C208.117,41.518,206.926,40.545,206.789,39.215C206.652,37.883,207.616,36.697,208.949,36.562C210.280,36.428,211.468,37.398,211.604,38.731ZZ" style="fill: rgb(220, 209, 203);"/></g></g><g id="shape-389bbc61-ba80-80b6-8003-7a49654c7971"><g class="fills" id="fills-389bbc61-ba80-80b6-8003-7a49654c7971"><path rx="0" ry="0" d="M205.888,44.439C205.933,44.871,205.854,45.290,205.683,45.664L206.849,46.713L205.844,47.826L204.685,46.780C204.399,46.940,204.077,47.054,203.730,47.091C202.400,47.227,201.208,46.254,201.070,44.926C200.934,43.594,201.898,42.408,203.230,42.273C204.563,42.138,205.752,43.107,205.888,44.439ZZ" style="fill: rgb(220, 209, 203);"/></g></g><g id="shape-389bbc61-ba80-80b6-8003-7a49654ccb2d"><g class="fills" id="fills-389bbc61-ba80-80b6-8003-7a49654ccb2d"><path rx="0" ry="0" d="M199.818,49.967C199.812,50.401,199.686,50.808,199.472,51.160L200.508,52.335L199.379,53.324L198.350,52.151C198.049,52.278,197.717,52.353,197.366,52.347C196.027,52.328,194.958,51.224,194.976,49.888C194.996,48.550,196.090,47.484,197.431,47.505C198.769,47.528,199.837,48.628,199.818,49.967ZZ" style="fill: rgb(220, 209, 203);"/></g></g></g><g id="shape-389bbc61-ba80-80b6-8003-7a49654ccb2e" rx="0" ry="0" style="fill: rgb(0, 0, 0);"><g id="shape-389bbc61-ba80-80b6-8003-7a49654d2e4e"><g class="fills" id="fills-389bbc61-ba80-80b6-8003-7a49654d2e4e"><path rx="0" ry="0" d="M226.950,54.099C226.521,54.054,226.101,54.131,225.725,54.302L224.680,53.133L223.566,54.139L224.609,55.298C224.448,55.583,224.334,55.904,224.297,56.252C224.160,57.584,225.130,58.775,226.461,58.915C227.792,59.051,228.979,58.089,229.116,56.757C229.252,55.426,228.285,54.238,226.950,54.099ZZ" style="fill: rgb(220, 209, 203);"/></g></g><g id="shape-389bbc61-ba80-80b6-8003-7a49654da49b"><g class="fills" id="fills-389bbc61-ba80-80b6-8003-7a49654da49b"><path rx="0" ry="0" d="M221.234,59.807C220.804,59.763,220.384,59.840,220.009,60.010L218.962,58.843L217.849,59.848L218.892,61.007C218.731,61.292,218.617,61.614,218.579,61.961C218.444,63.293,219.413,64.484,220.742,64.625C222.073,64.762,223.260,63.800,223.397,62.468C223.535,61.136,222.568,59.947,221.234,59.807ZZ" style="fill: rgb(220, 209, 203);"/></g></g><g id="shape-389bbc61-ba80-80b6-8003-7a49654dd27c"><g class="fills" id="fills-389bbc61-ba80-80b6-8003-7a49654dd27c"><path rx="0" ry="0" d="M215.862,65.936C215.429,65.914,215.013,66.014,214.648,66.204L213.542,65.092L212.483,66.156L213.586,67.258C213.440,67.551,213.344,67.879,213.325,68.227C213.259,69.565,214.291,70.703,215.626,70.773C216.961,70.839,218.097,69.816,218.162,68.478C218.229,67.142,217.200,66.003,215.862,65.936ZZ" style="fill: rgb(220, 209, 203);"/></g></g></g></g><g id="shape-389bbc61-ba80-80b6-8003-7a49654e471c"><g class="fills" id="fills-389bbc61-ba80-80b6-8003-7a49654e471c"><path rx="0" ry="0" d="M230.016,50.578L230.016,50.578ZC233.792,46.449,233.692,40.045,229.697,36.045C225.700,32.042,219.297,31.936,215.179,35.711L215.165,35.709C212.588,42.371,191.198,59.643,191.198,59.643L190.340,65.662L188.913,67.457L193.032,71.583L194.109,72.661L198.200,76.758L200.026,75.362L206.048,74.514C206.048,74.512,223.349,53.145,230.016,50.578ZZM201.860,60.373C201.194,61.037,200.116,61.034,199.451,60.368C198.785,59.702,198.784,58.624,199.449,57.959L215.900,41.531C216.565,40.867,217.644,40.869,218.309,41.536C218.974,42.202,218.976,43.280,218.311,43.945L201.860,60.373ZZM207.785,66.307C207.120,66.971,206.041,66.968,205.376,66.302C204.711,65.636,204.709,64.557,205.375,63.893L221.826,47.465C222.491,46.800,223.569,46.803,224.235,47.469C224.900,48.136,224.901,49.214,224.236,49.878L207.785,66.307ZZ" style="fill: rgb(73, 1, 21);"/></g></g><g id="shape-389bbc61-ba80-80b6-8003-7a49654e96ae" rx="0" ry="0" style="fill: rgb(0, 0, 0);"><g id="shape-389bbc61-ba80-80b6-8003-7a49654e96af"><g class="fills" id="fills-389bbc61-ba80-80b6-8003-7a49654e96af"><path rx="0" ry="0" d="M125.146,126.937L189.800,66.623L199.029,75.864L139.329,141.140Z" style="fill: rgb(91, 61, 36);"/></g></g><g id="shape-389bbc61-ba80-80b6-8003-7a49654efd39" rx="0" ry="0" style="fill: rgb(0, 0, 0);"><g id="shape-389bbc61-ba80-80b6-8003-7a49654f7d59"><g class="fills" id="fills-389bbc61-ba80-80b6-8003-7a49654f7d59"><path rx="0" ry="0" d="M106.319,191.846L76.456,161.942L71.774,166.617L77.935,172.786C77.110,174.516,79.787,179.188,84.249,183.657C88.713,188.126,93.379,190.807,95.112,189.987L101.637,196.521L106.319,191.846ZZ" style="fill: rgb(91, 61, 36);"/></g></g><g id="shape-389bbc61-ba80-80b6-8003-7a49654f7d5a" rx="0" ry="0" style="fill: rgb(0, 0, 0);"><g id="shape-389bbc61-ba80-80b6-8003-7a49654f7d5b" rx="0" ry="0" style="fill: rgb(0, 0, 0);"><g id="shape-389bbc61-ba80-80b6-8003-7a49654f7d5c" rx="0" ry="0" style="fill: rgb(0, 0, 0);"><g id="shape-389bbc61-ba80-80b6-8003-7a49654fa585"><g class="fills" id="fills-389bbc61-ba80-80b6-8003-7a49654fa585"><rect rx="0" ry="0" x="64.55948628991712" y="119.20326317810583" transform="matrix(0.717165, -0.696904, 0.696954, 0.717115, -44.422928, 129.778068)" width="146.2216488481954" height="0.8084386670914796" style="fill: rgb(226, 225, 224);"/></g></g></g><g id="shape-389bbc61-ba80-80b6-8003-7a49654fa586" rx="0" ry="0" style="fill: rgb(0, 0, 0);"><g id="shape-389bbc61-ba80-80b6-8003-7a49654fa587"><g class="fills" id="fills-389bbc61-ba80-80b6-8003-7a49654fa587"><rect rx="0" ry="0" x="66.91342029866962" y="121.53461790283711" transform="matrix(0.714434, -0.699703, 0.699739, 0.714398, -45.340388, 132.799534)" width="146.2159821023506" height="0.8096200719747912" style="fill: rgb(226, 225, 224);"/></g></g></g><g id="shape-389bbc61-ba80-80b6-8003-7a49654fa588" rx="0" ry="0" style="fill: rgb(0, 0, 0);"><g id="shape-389bbc61-ba80-80b6-8003-7a49654fd6ca"><g class="fills" id="fills-389bbc61-ba80-80b6-8003-7a49654fd6ca"><rect rx="0" ry="0" x="141.68273445773593" y="50.90319822464551" transform="matrix(0.708943, 0.705266, -0.705254, 0.708955, 128.811953, -64.117864)" width="0.8095865685611443" height="146.20760009254292" style="fill: rgb(226, 225, 224);"/></g></g></g><g id="shape-389bbc61-ba80-80b6-8003-7a49654fd6cb" rx="0" ry="0" style="fill: rgb(0, 0, 0);"><g id="shape-389bbc61-ba80-80b6-8003-7a4965501c2d"><g class="fills" id="fills-389bbc61-ba80-80b6-8003-7a4965501c2d"><path rx="0" ry="0" d="M93.398,178.741L195.117,73.691L195.699,74.256L93.977,179.305Z" style="fill: rgb(226, 225, 224);"/></g></g></g><g id="shape-389bbc61-ba80-80b6-8003-7a4965501c2e" rx="0" ry="0" style="fill: rgb(0, 0, 0);"><g id="shape-389bbc61-ba80-80b6-8003-7a4965505f47"><g class="fills" id="fills-389bbc61-ba80-80b6-8003-7a4965505f47"><path rx="0" ry="0" d="M96.574,181.928L197.042,75.625L197.629,76.182L97.162,182.486Z" style="fill: rgb(226, 225, 224);"/></g></g></g></g></g></g></g></g></g></g></svg>