<svg xmlns:xlink="http://www.w3.org/1999/xlink" width="264" xmlns="http://www.w3.org/2000/svg" height="264" id="screenshot-389bbc61-ba80-80b6-8003-7a49d439b572" viewBox="0 0 264 264" style="-webkit-print-color-adjust: exact;" fill="none" version="1.1"><g id="shape-389bbc61-ba80-80b6-8003-7a49d439b572" rx="0" ry="0"><g id="shape-389bbc61-ba80-80b6-8003-7a44453d5cab"><g class="fills" id="fills-389bbc61-ba80-80b6-8003-7a44453d5cab"><rect rx="0" ry="0" x="0" y="0" transform="matrix(1.000000, 0.000000, 0.000000, 1.000000, 0.000000, 0.000000)" width="264" height="264" style="fill: rgb(220, 224, 235); fill-opacity: 1;"/></g></g><g id="shape-91b4c886-ebd8-80f1-8003-7b76e9a6ecef" width="36" version="1.1" height="36" rx="0" ry="0" style="fill: rgb(0, 0, 0);"><g id="shape-91b4c886-ebd8-80f1-8003-7b76e9a92682"><defs id="defs4490" rx="0" ry="0" style="fill: rgb(106, 120, 101); fill-opacity: 1;"/></g><g id="shape-91b4c886-ebd8-80f1-8003-7b76e9a98c69" rx="0" ry="0" style="fill: rgb(0, 0, 0);"><g id="shape-91b4c886-ebd8-80f1-8003-7b76e9b4c3c3"><g class="fills" id="fills-91b4c886-ebd8-80f1-8003-7b76e9b4c3c3"><path rx="0" ry="0" d="M99.301,53.362C98.125,53.362,96.989,54.431,96.989,56.190L96.989,58.925C97.000,59.025,97.000,59.125,97.000,59.224L97.000,70.947C97.000,71.029,96.995,71.117,96.989,71.199L96.989,82.372C97.000,82.471,97.000,82.571,97.000,82.671L97.000,94.393C97.000,94.475,96.995,94.563,96.989,94.645L96.989,105.817C97.000,105.917,97.000,106.017,97.000,106.116L97.000,117.838C97.000,117.920,96.995,118.008,96.989,118.090L96.989,129.263C97.000,129.363,97.000,129.463,97.000,129.562L97.000,141.285C97.000,141.367,96.995,141.455,96.989,141.537L96.989,152.709C97.000,152.809,97.000,152.908,97.000,153.008L97.000,164.730C97.000,164.812,96.995,164.900,96.989,164.982L96.989,176.155C97.000,176.255,97.000,176.355,97.000,176.454L97.000,188.176C97.000,188.259,96.995,188.346,96.989,188.428L96.989,199.166C97.000,199.266,97.000,199.365,97.000,199.465L97.000,211.622C96.994,211.681,96.994,211.704,96.989,211.751C97.006,213.488,98.131,214.556,99.301,214.556L164.699,214.556C165.872,214.556,167.000,213.484,167.011,211.740C167.006,211.681,167.006,211.664,167.000,211.623L167.000,199.900C167.000,199.801,167.000,199.701,167.011,199.602L167.011,188.360C167.006,188.301,167.000,188.237,167.000,188.178L167.000,176.456C167.000,176.356,167.000,176.257,167.011,176.157L167.011,164.915C167.006,164.857,167.000,164.792,167.000,164.734L167.000,153.012C167.000,152.912,167.000,152.812,167.011,152.713L167.011,141.471C167.006,141.412,167.000,141.348,167.000,141.289L167.000,129.567C167.000,129.467,167.000,129.368,167.011,129.268L167.011,118.027C167.006,117.969,167.000,117.904,167.000,117.845L167.000,106.123C167.000,106.024,167.000,105.924,167.011,105.824L167.011,94.583C167.006,94.524,167.000,94.460,167.000,94.401L167.000,82.679C167.000,82.579,167.000,82.480,167.011,82.380L167.011,71.138C167.006,71.080,167.000,71.015,167.000,70.957L167.000,59.234C167.000,59.135,167.000,59.035,167.011,58.935L167.011,56.199C167.011,54.442,165.877,53.372,164.699,53.372L141.707,53.372L141.103,53.372C140.871,53.642,140.438,54.309,139.816,55.158C138.538,56.900,135.906,59.336,132.000,59.336C128.094,59.336,125.462,56.900,124.184,55.158C123.562,54.309,123.118,53.641,122.885,53.372L117.998,53.372L99.301,53.362ZZM85.333,56.293L85.333,62.154L73.667,62.154L73.667,68.015L85.333,68.015L85.333,73.876L91.155,73.876L91.155,56.293L85.333,56.293ZZM172.845,56.293L172.845,73.876L178.667,73.876L178.667,68.015L190.333,68.015L190.333,62.154L178.667,62.154L178.667,56.293L172.845,56.293ZZM105.545,59.223C105.613,59.221,105.681,59.221,105.750,59.223C107.361,59.223,108.666,60.536,108.666,62.154C108.666,63.772,107.361,65.084,105.750,65.084C104.139,65.084,102.833,63.772,102.833,62.154C102.829,60.612,104.014,59.332,105.545,59.223ZZM85.333,79.737L85.333,85.598L73.667,85.598L73.667,91.459L85.333,91.459L85.333,97.320L91.155,97.320L91.155,79.737L85.333,79.737ZZM172.845,79.737L172.845,97.320L178.667,97.320L178.667,91.459L190.333,91.459L190.333,85.598L178.667,85.598L178.667,79.737L172.845,79.737ZZM85.333,103.182L85.333,109.043L73.667,109.043L73.667,114.904L85.333,114.904L85.333,120.765L91.155,120.765L91.155,103.182L85.333,103.182ZZM172.845,103.182L172.845,120.765L178.667,120.765L178.667,114.904L190.333,114.904L190.333,109.043L178.667,109.043L178.667,103.182L172.845,103.182ZZM85.333,126.626L85.333,132.487L73.667,132.487L73.667,138.348L85.333,138.348L85.333,144.209L91.155,144.209L91.155,126.626L85.333,126.626ZZM172.845,126.626L172.845,144.209L178.667,144.209L178.667,138.348L190.333,138.348L190.333,132.487L178.667,132.487L178.667,126.626L172.845,126.626ZZM85.333,150.070L85.333,155.932L73.667,155.932L73.667,161.793L85.333,161.793L85.333,167.654L91.155,167.654L91.155,150.070L85.333,150.070ZZM172.845,150.070L172.845,167.654L178.667,167.654L178.667,161.793L190.333,161.793L190.333,155.932L178.667,155.932L178.667,150.070L172.845,150.070ZZM85.333,173.515L85.333,179.376L73.667,179.376L73.667,185.237L85.333,185.237L85.333,191.098L91.155,191.098L91.155,173.515L85.333,173.515ZZM172.845,173.515L172.845,191.098L178.667,191.098L178.667,185.237L190.333,185.237L190.333,179.376L178.667,179.376L178.667,173.515L172.845,173.515ZZM85.333,196.524L85.333,202.820L73.667,202.820L73.667,208.682L85.333,208.682L85.333,214.543L91.155,214.543L91.155,196.524L85.333,196.524ZZM172.845,196.958L172.845,214.541L178.667,214.541L178.667,208.680L190.333,208.680L190.333,202.819L178.667,202.819L178.667,196.958L172.845,196.958ZZ" style="font: medium sans-serif; word-spacing: normal; baseline-shift: baseline; color: rgb(0, 0, 0); fill-rule: nonzero; text-transform: none; overflow: visible; text-anchor: start; text-indent: 0px; writing-mode: lr-tb; letter-spacing: normal; text-align: start; display: inline; text-decoration: none; visibility: visible; direction: ltr; fill: rgb(106, 120, 101); fill-opacity: 1;"/></g></g></g></g></g></svg>