<svg xmlns:xlink="http://www.w3.org/1999/xlink" width="264" xmlns="http://www.w3.org/2000/svg" height="264" id="screenshot-389bbc61-ba80-80b6-8003-7a49d439b572" viewBox="0 0 264 264" style="-webkit-print-color-adjust: exact;" fill="none" version="1.1"><g id="shape-389bbc61-ba80-80b6-8003-7a49d439b572" rx="0" ry="0"><g id="shape-389bbc61-ba80-80b6-8003-7a44453d5cab"><g class="fills" id="fills-389bbc61-ba80-80b6-8003-7a44453d5cab"><rect rx="0" ry="0" x="0" y="0" transform="matrix(1.000000, 0.000000, 0.000000, 1.000000, 0.000000, 0.000000)" width="264" height="264" style="fill: rgb(220, 224, 235); fill-opacity: 1;"/></g></g><g id="shape-91b4c886-ebd8-80f1-8003-7b7b06c10927" rx="0" ry="0" style="fill: rgb(0, 0, 0);"><g id="shape-91b4c886-ebd8-80f1-8003-7b7b06cc6f89"><g class="fills" id="fills-91b4c886-ebd8-80f1-8003-7b7b06cc6f89"><path rx="0" ry="0" d="M95.148,210.612C85.973,209.206,78.361,204.443,73.350,196.970C71.429,194.106,69.629,189.799,68.987,186.531C68.448,183.790,68.405,182.468,68.405,168.666L68.405,154.808L66.980,154.808C64.497,154.808,61.981,154.229,59.810,153.177C56.421,151.525,54.265,148.136,53.554,143.343C53.234,141.192,53.236,139.042,53.558,137.957C54.538,134.656,59.788,134.223,61.089,137.340C61.257,137.747,61.338,138.470,61.340,139.586C61.346,142.877,61.860,144.632,63.136,145.725C64.062,146.513,65.142,146.842,66.878,146.855L68.324,146.863L68.363,137.106L68.402,127.347L131.766,127.347L195.129,127.347L195.129,137.057L195.129,146.768L195.711,146.900C196.030,146.900,196.844,147.031,197.518,146.900C201.314,146.624,202.665,144.705,202.675,139.594C202.678,137.832,202.881,137.067,203.529,136.372C204.952,134.848,207.960,134.873,209.509,136.372C210.545,137.410,210.785,138.373,210.651,140.952C210.367,146.402,208.576,150.338,205.431,152.422C203.177,153.914,200.841,154.584,197.419,154.721L195.130,154.852L195.130,168.570C195.130,182.682,195.077,183.966,194.461,187.012C193.601,191.215,191.520,195.783,188.912,199.190C187.871,200.549,185.489,203.001,184.128,204.114C180.786,206.848,176.899,208.829,172.778,209.895C168.828,210.920,171.043,210.867,132.067,210.854C102.787,210.854,96.338,210.854,95.148,210.612ZZM68.405,116.500L68.405,110.798L95.119,110.798L121.833,110.798L122.100,109.956C122.430,108.905,123.334,107.379,124.070,106.621L124.622,106.056L124.622,101.846L124.622,97.636L131.769,97.636L138.917,97.636L138.917,101.846L138.917,106.056L139.469,106.621C140.205,107.383,141.109,108.910,141.439,109.956L141.705,110.798L168.419,110.798L195.133,110.798L195.133,116.500L195.133,122.202L131.769,122.202L68.404,122.202L68.405,116.500ZZM92.612,103.812C91.616,103.562,90.677,102.879,90.088,101.993C89.046,100.420,89.044,99.110,90.083,97.120C91.066,95.236,91.384,94.205,91.484,92.568C91.656,89.766,91.034,87.629,88.329,81.726C85.847,76.311,85.427,75.092,85.091,72.330C84.539,67.794,86.427,62.668,90.130,58.651C91.485,57.181,93.029,56.702,94.773,57.209C95.808,57.511,97.012,58.484,97.484,59.413C97.853,60.136,97.899,61.421,97.576,62.176C97.458,62.465,97.037,63.056,96.646,63.495C95.418,64.880,94.929,65.581,94.352,66.786C93.604,68.347,93.403,69.422,93.493,71.364C93.585,73.352,94.135,75.073,96.016,79.282C97.655,82.950,98.281,84.599,98.805,86.625C100.108,91.654,99.727,95.696,97.536,100.123C96.764,101.680,95.871,102.960,95.224,103.435C94.628,103.869,93.487,104.039,92.612,103.812ZZM110.676,102.564C109.962,102.340,108.628,101.115,108.196,100.295C107.711,99.375,107.698,97.496,108.170,96.584C110.432,92.208,110.570,91.725,110.563,88.151C110.557,84.993,110.386,84.096,108.731,78.594C106.841,72.306,106.451,70.362,106.444,67.182C106.436,63.077,107.395,59.798,109.583,56.440C111.266,53.857,112.191,53.145,113.861,53.141C115.003,53.138,116.152,53.667,116.968,54.574C117.754,55.441,118.037,56.128,118.037,57.151C118.037,58.163,117.796,58.747,116.669,60.441C114.563,63.605,114.090,67.000,115.131,71.466C115.304,72.202,115.961,74.458,116.590,76.470C118.462,82.452,118.966,85.323,118.783,88.954C118.616,92.266,117.889,95.020,116.343,98.190C115.118,100.704,114.251,101.939,113.391,102.394C112.626,102.801,111.609,102.867,110.676,102.564ZZ" style="fill: rgb(106, 120, 101); fill-opacity: 1;"/></g></g></g></g></svg>