<svg xmlns:xlink="http://www.w3.org/1999/xlink" width="264" xmlns="http://www.w3.org/2000/svg" height="264" id="screenshot-389bbc61-ba80-80b6-8003-7a49d439b572" viewBox="0 0 264 264" style="-webkit-print-color-adjust: exact;" fill="none" version="1.1"><g id="shape-389bbc61-ba80-80b6-8003-7a49d439b572" rx="0" ry="0"><g id="shape-389bbc61-ba80-80b6-8003-7a44453d5cab"><g class="fills" id="fills-389bbc61-ba80-80b6-8003-7a44453d5cab"><rect rx="0" ry="0" x="0" y="0" transform="matrix(1.000000, 0.000000, 0.000000, 1.000000, 0.000000, 0.000000)" width="264" height="264" style="fill: rgb(220, 224, 235); fill-opacity: 1;"/></g></g><g xmlns:xlink="http://www.w3.org/1999/xlink" width="801.535px" xml:space="preserve" height="476.749px" x="0px" id="shape-91b4c886-ebd8-80f1-8003-7b77d74fc8b0" style="fill: rgb(0, 0, 0);" ry="0" rx="0" y="0px" version="1.1" enable-background="new 0 0 801.535 476.749"><g id="shape-91b4c886-ebd8-80f1-8003-7b77d7516b3f" rx="0" ry="0" style="fill: rgb(0, 0, 0);"><g id="shape-91b4c886-ebd8-80f1-8003-7b77d75a4fcf"><g class="fills" id="fills-91b4c886-ebd8-80f1-8003-7b77d75a4fcf"><path rx="0" ry="0" d="M231.999,211.436C231.851,211.629,231.649,211.801,231.565,212.019C230.968,213.548,229.835,214.004,228.241,214.000C223.974,213.989,219.707,213.983,215.439,213.979C211.205,213.976,206.970,213.975,202.736,213.975C198.468,213.975,194.201,213.977,189.933,213.978C185.684,213.978,181.434,213.978,177.184,213.978C172.935,213.979,168.686,213.979,164.438,213.979C160.189,213.979,155.940,213.979,151.691,213.980C147.442,213.980,143.193,213.980,138.945,213.980C134.696,213.980,130.447,213.980,126.198,213.979C121.949,213.979,117.700,213.978,113.451,213.978C109.202,213.977,104.954,213.976,100.705,213.974C99.663,213.974,98.622,213.974,97.580,213.973C91.422,213.971,85.263,213.865,79.105,213.871C73.917,213.877,68.729,213.887,63.541,213.901C58.353,213.914,53.164,213.930,47.976,213.946C45.382,213.953,42.788,213.961,40.194,213.968C38.931,213.972,37.662,214.015,36.400,213.974C35.673,213.950,34.911,213.822,34.293,213.414C32.776,212.413,33.059,210.277,33.043,208.721C33.015,206.122,32.998,203.522,33.001,200.923C33.003,199.640,33.010,198.356,33.024,197.073C33.038,195.824,33.025,194.568,33.088,193.320C33.125,192.590,33.281,191.831,33.724,191.232C34.137,190.674,34.761,190.350,35.432,190.208C35.835,190.123,36.250,190.097,36.662,190.105C41.272,190.189,45.883,190.205,50.494,190.210C55.110,190.214,59.725,190.211,64.341,190.170C65.001,190.164,65.661,190.159,66.321,190.155C66.829,190.153,67.357,190.194,67.862,190.127C68.287,190.072,68.598,189.859,68.807,189.485C69.027,189.093,69.441,188.765,69.908,188.732C71.017,188.653,72.140,188.690,73.252,188.760C73.526,188.777,73.870,188.886,74.072,189.078C74.289,189.283,74.321,189.618,74.556,189.831C74.974,190.208,75.587,190.144,76.108,190.143C84.342,190.139,92.575,190.144,100.809,190.144C114.087,190.144,127.366,190.133,140.644,190.160C141.188,190.161,141.746,190.081,142.183,189.733C142.719,189.308,143.019,188.603,143.359,188.027C144.172,186.650,144.980,185.270,145.768,183.879C147.357,181.076,148.867,178.224,150.168,175.276C150.901,173.616,151.567,171.926,152.143,170.205C153.062,167.462,153.852,164.633,153.960,161.726C154.014,160.273,153.897,158.808,153.569,157.390C153.278,156.132,152.740,154.949,152.059,153.854C151.297,152.629,150.371,151.515,149.432,150.422C146.572,147.089,142.769,145.282,138.668,143.953C130.099,141.176,121.288,139.902,112.308,139.844C106.362,139.806,100.399,139.803,94.470,140.189C88.858,140.554,84.641,143.692,81.213,148.001C79.886,149.670,79.064,151.649,78.472,153.680C77.864,155.768,77.399,157.906,76.892,160.020C76.568,161.371,76.256,162.725,75.961,164.082C75.853,164.576,75.568,164.962,75.123,165.202C74.678,165.442,74.172,165.530,73.715,165.743C73.497,165.844,73.248,165.967,73.091,166.155C72.917,166.362,72.944,166.700,72.935,166.955C72.909,167.693,73.003,168.428,73.082,169.159C73.093,169.266,73.575,169.380,73.844,169.392C74.822,169.438,75.802,169.513,76.782,169.484C77.176,169.473,77.520,169.458,77.873,169.274C78.242,169.083,78.579,168.836,78.947,168.644C78.947,169.609,78.947,170.529,78.947,171.575C77.161,170.147,75.259,170.929,73.482,170.811C73.248,170.796,73.037,171.390,72.989,171.550C72.923,171.763,72.936,171.984,72.933,172.205C72.928,172.514,72.924,172.824,72.922,173.133C72.911,174.306,72.912,175.480,72.913,176.653C72.915,177.796,72.898,178.941,72.915,180.084C72.927,180.917,72.986,181.758,72.866,182.586C72.724,183.567,72.276,184.434,71.487,185.052C71.447,184.949,71.423,184.626,71.249,184.484C70.233,183.651,70.056,182.433,70.088,181.195C70.102,180.657,70.147,180.117,70.131,179.580C70.124,179.340,70.112,179.037,69.881,178.898C69.541,178.694,68.980,178.794,68.610,178.810C68.005,178.837,67.404,178.713,66.799,178.742C66.502,178.756,66.204,178.809,65.932,178.933C65.788,178.999,65.653,179.083,65.530,179.183C65.463,179.237,65.400,179.296,65.340,179.359C65.287,179.414,65.221,179.538,65.157,179.572C65.018,179.649,64.774,179.559,64.633,179.517C64.538,179.489,64.422,179.461,64.340,179.403C64.235,179.329,64.250,179.276,64.238,179.137C64.162,178.252,64.150,177.363,64.211,176.477C64.220,176.341,64.975,176.056,65.081,176.157C66.326,177.342,67.846,176.650,69.228,176.823C70.018,176.922,70.186,176.458,70.180,175.758C70.154,172.832,70.144,169.905,70.183,166.980C70.191,166.360,69.963,165.963,69.330,165.855C68.784,165.761,68.220,165.772,67.684,165.616C66.780,165.355,66.783,164.350,66.700,163.565C66.101,157.910,65.452,152.254,65.099,146.582C64.883,143.113,64.835,139.636,64.870,136.161C64.905,132.670,65.038,129.185,65.269,125.701C65.400,123.735,65.550,121.770,65.695,119.805C65.721,119.448,65.719,119.036,65.511,118.727C65.321,118.444,64.990,118.328,64.667,118.279C63.538,118.108,62.363,118.259,61.272,117.848C60.840,117.686,60.450,117.354,60.325,116.894C60.218,116.498,60.584,116.180,60.905,116.012C61.098,115.911,61.282,115.907,61.497,115.896C61.828,115.879,62.159,115.866,62.491,115.859C63.105,115.847,63.721,115.859,64.333,115.917C64.750,115.957,65.297,116.133,65.707,115.971C66.063,115.831,66.116,115.396,66.142,115.065C66.265,113.506,66.630,111.961,66.686,110.402C66.709,109.754,66.869,109.080,67.333,108.600C67.813,108.105,68.434,108.001,69.078,107.865C69.678,107.738,70.143,107.406,70.271,106.785C70.370,106.301,70.420,105.432,70.009,105.068C69.741,104.830,69.352,104.874,69.021,104.865C68.433,104.848,67.858,104.702,67.277,104.622C67.265,104.429,67.253,104.236,67.241,104.043C67.722,103.933,68.187,103.707,68.687,103.696C69.039,103.689,69.387,103.763,69.727,103.629C70.297,103.404,70.323,102.728,70.297,102.205C70.244,101.129,70.238,100.050,70.257,98.973C70.266,98.458,70.257,97.934,70.302,97.420C70.346,96.925,70.579,96.473,70.717,96.001C70.887,96.002,71.058,96.004,71.228,96.005C71.358,96.454,71.574,96.884,71.633,97.351C71.696,97.851,71.672,98.375,71.680,98.879C71.695,99.881,71.691,100.885,71.667,101.887C71.655,102.408,71.503,103.252,72.059,103.572C72.331,103.728,72.647,103.700,72.948,103.700C73.429,103.700,73.889,103.866,74.358,103.950C74.379,104.116,74.399,104.282,74.419,104.448C73.940,104.588,73.473,104.779,72.980,104.865C72.708,104.912,72.427,104.889,72.157,104.944C71.532,105.074,71.705,105.754,71.662,106.236C71.619,106.716,71.572,107.268,72.042,107.560C72.353,107.753,72.742,107.768,73.088,107.870C73.444,107.975,73.787,108.123,74.107,108.314C74.843,108.752,75.424,109.398,75.891,110.108C77.600,112.704,79.983,114.758,82.496,116.555C85.152,118.454,88.061,119.971,91.076,121.218C92.781,121.924,94.519,122.545,96.275,123.113C97.165,123.401,98.106,123.491,99.036,123.533C100.009,123.577,100.984,123.594,101.957,123.629C104.011,123.703,106.066,123.745,108.122,123.753C112.244,123.769,116.368,123.649,120.482,123.384C122.813,123.233,125.141,123.036,127.464,122.791C136.649,121.820,145.698,120.119,154.666,117.953C156.489,117.513,156.482,117.493,156.482,115.566C156.481,111.441,156.470,107.316,156.490,103.192C156.493,102.589,156.308,101.532,157.078,101.308C157.442,101.202,157.908,101.272,158.113,101.617C158.302,101.935,158.279,102.353,158.268,102.707C158.230,104.011,158.263,105.318,158.266,106.622C158.269,108.052,158.271,109.482,158.269,110.911C158.266,112.538,158.259,114.165,158.244,115.792C158.235,116.849,158.492,117.217,159.664,117.131C165.019,116.738,170.232,117.303,175.081,119.837C177.869,121.293,179.949,123.518,181.612,126.108C182.192,127.011,182.613,128.003,183.053,128.978C183.268,129.455,183.476,129.946,183.739,130.399C183.937,130.740,184.320,131.118,184.733,131.164C185.736,131.276,186.768,131.210,187.776,131.207C188.040,131.207,188.331,131.166,188.511,130.952C188.689,130.739,188.707,130.429,188.703,130.164C188.672,128.061,188.798,125.950,188.663,123.855C188.478,120.982,190.463,119.553,193.367,120.197C193.717,120.274,194.063,120.371,194.658,120.521C194.658,118.964,194.661,117.547,194.657,116.130C194.653,114.363,195.365,113.524,197.128,113.420C198.102,113.363,199.078,113.349,200.053,113.369C200.789,113.384,201.576,113.351,202.283,113.591C203.421,113.979,203.779,115.067,203.779,116.177C203.780,124.959,203.780,133.740,203.780,142.610C204.241,142.683,204.662,142.733,205.131,142.734C205.607,142.735,206.083,142.736,206.559,142.737C207.510,142.740,208.462,142.742,209.413,142.743C211.317,142.745,213.220,142.740,215.123,142.719C216.074,142.709,216.992,142.701,217.799,142.123C219.356,141.008,221.363,141.094,222.646,142.448C223.845,143.715,223.904,145.760,222.777,147.084C221.573,148.500,219.562,148.689,217.950,147.688C217.305,147.288,216.468,147.015,215.712,147.000C212.316,146.931,208.919,147.000,205.522,146.951C205.071,146.945,204.479,146.875,204.098,147.181C203.735,147.474,203.746,148.015,203.752,148.435C203.779,150.119,203.789,151.803,203.789,153.487C203.789,155.400,203.778,157.313,203.775,159.226C203.773,160.626,203.205,161.461,201.810,161.600C200.871,161.693,199.928,161.742,198.985,161.744C198.129,161.746,197.201,161.778,196.360,161.602C195.129,161.345,194.665,160.251,194.664,159.094C194.663,157.621,194.664,156.147,194.664,154.613C193.216,154.838,191.616,155.354,190.215,154.654C189.110,154.102,188.696,152.912,188.692,151.743C188.684,149.515,188.668,147.287,188.709,145.061C188.719,144.517,188.579,144.025,187.980,143.922C187.651,143.865,187.303,143.900,186.971,143.902C186.714,143.904,186.457,143.904,186.199,143.911C185.933,143.919,185.567,143.902,185.339,144.070C185.154,144.207,185.137,144.455,185.130,144.666C185.111,145.216,185.162,145.769,185.161,146.320C185.156,154.320,185.261,162.324,185.045,170.319C184.879,176.454,184.326,182.580,183.864,188.703C183.772,189.918,184.156,190.166,185.277,190.163C188.632,190.156,191.987,190.153,195.341,190.151C198.696,190.149,202.051,190.150,205.406,190.149C208.760,190.149,212.115,190.147,215.470,190.142C218.824,190.138,222.179,190.130,225.534,190.116C227.616,190.108,230.301,189.799,231.594,191.822C231.757,192.076,231.890,192.348,232.000,192.628C231.999,198.896,231.999,205.166,231.999,211.436ZZ" style="fill: rgb(106, 120, 101); fill-opacity: 1;"/></g></g></g></g></g></svg>