<svg xmlns:xlink="http://www.w3.org/1999/xlink" width="264" xmlns="http://www.w3.org/2000/svg" height="264" id="screenshot-389bbc61-ba80-80b6-8003-7a49d439b572" viewBox="0 0 264 264" style="-webkit-print-color-adjust: exact;" fill="none" version="1.1"><g id="shape-389bbc61-ba80-80b6-8003-7a49d439b572" rx="0" ry="0"><g id="shape-389bbc61-ba80-80b6-8003-7a44453d5cab"><g class="fills" id="fills-389bbc61-ba80-80b6-8003-7a44453d5cab"><rect rx="0" ry="0" x="0" y="0" transform="matrix(1.000000, 0.000000, 0.000000, 1.000000, 0.000000, 0.000000)" width="264" height="264" style="fill: rgb(220, 224, 235); fill-opacity: 1;"/></g></g><g id="shape-91b4c886-ebd8-80f1-8003-7b7240848be5" rx="0" ry="0" style="fill: rgb(0, 0, 0);"><g id="shape-91b4c886-ebd8-80f1-8003-7b72409b354c"><g class="fills" id="fills-91b4c886-ebd8-80f1-8003-7b72409b354c"><path rx="0" ry="0" d="M171.303,83.282L172.372,83.295C173.766,83.311,174.921,82.184,174.938,80.790L175.000,75.536C175.017,74.141,173.889,72.988,172.495,72.971L171.425,72.959C170.030,72.942,168.876,74.069,168.859,75.463L168.850,76.277L163.672,76.216L163.877,58.923C163.905,56.554,161.652,54.807,159.369,55.443C157.271,56.028,155.170,56.763,153.077,56.907C152.535,56.944,151.994,56.834,151.492,56.622C147.306,54.848,140.882,50.983,132.887,51.000C125.766,51.015,119.903,54.452,115.883,56.107C115.258,56.365,114.570,56.432,113.905,56.311L105.032,54.701C102.860,54.308,100.856,55.960,100.830,58.166L100.626,75.436L95.706,75.377L95.715,74.563C95.732,73.169,94.604,72.016,93.210,71.999L92.140,71.986C90.745,71.970,89.591,73.097,89.575,74.491L89.512,79.746C89.495,81.139,90.623,82.293,92.018,82.310L93.087,82.323C94.481,82.339,95.636,81.212,95.653,79.818L95.655,79.563L100.576,79.621L100.369,97.093L95.449,97.035L95.459,96.221C95.475,94.827,94.348,93.673,92.953,93.657L91.883,93.644C90.489,93.628,89.335,94.754,89.318,96.148L89.256,101.403C89.240,102.797,90.367,103.951,91.762,103.967L92.832,103.980C94.226,103.997,95.380,102.870,95.397,101.476L95.400,101.220L100.321,101.278L100.114,118.750L95.194,118.692L95.203,117.878C95.219,116.484,94.092,115.331,92.697,115.314L91.628,115.301C90.234,115.284,89.079,116.412,89.062,117.806L89.000,123.060C88.984,124.454,90.111,125.608,91.505,125.625L92.575,125.637C93.969,125.654,95.123,124.527,95.140,123.133L95.143,122.877L100.063,122.936L99.834,142.280C99.811,144.241,101.395,145.844,103.358,145.844L103.358,145.844C111.358,145.844,117.817,152.377,117.723,160.374L117.533,176.439L117.559,204.236C117.559,204.512,117.783,204.736,118.060,204.736L120.755,204.736C121.031,204.736,121.255,204.512,121.255,204.236L121.255,176.483L128.982,176.575L128.982,213.500C128.982,213.777,129.207,214.000,129.483,214.000L132.177,214.000C132.454,214.000,132.677,213.776,132.677,213.500L132.677,176.618L140.680,176.713L140.680,204.236C140.680,204.512,140.904,204.736,141.180,204.736L143.874,204.736C144.150,204.736,144.374,204.512,144.374,204.236L144.379,176.756L144.565,161.035C144.660,152.982,151.218,146.504,159.274,146.504L159.316,146.504C161.268,146.504,162.858,144.934,162.881,142.982L163.109,123.717L168.287,123.778L168.284,124.033C168.267,125.427,169.394,126.581,170.789,126.598L171.859,126.610C173.253,126.626,174.407,125.500,174.424,124.106L174.487,118.851C174.503,117.457,173.376,116.304,171.981,116.287L170.911,116.274C169.517,116.257,168.363,117.384,168.346,118.778L168.337,119.592L163.159,119.531L163.365,102.059L168.543,102.120L168.540,102.375C168.524,103.769,169.651,104.923,171.045,104.940L172.115,104.952C173.509,104.968,174.664,103.842,174.681,102.448L174.743,97.193C174.760,95.799,173.632,94.646,172.237,94.629L171.168,94.616C169.773,94.599,168.619,95.726,168.602,97.121L168.593,97.934L163.415,97.873L163.622,80.401L168.800,80.462L168.796,80.718C168.781,82.111,169.908,83.265,171.303,83.282ZZM111.643,125.002C109.061,124.971,106.992,122.854,107.022,120.273C107.053,117.692,109.171,115.625,111.753,115.655C114.335,115.686,116.403,117.802,116.373,120.383C116.343,122.965,114.225,125.032,111.643,125.002ZZM111.894,103.733C109.312,103.702,107.244,101.586,107.274,99.004C107.305,96.423,109.422,94.355,112.004,94.385C114.586,94.415,116.655,96.533,116.625,99.114C116.595,101.696,114.476,103.763,111.894,103.733ZZM112.146,82.464C109.564,82.433,107.495,80.316,107.526,77.735C107.557,75.154,109.674,73.086,112.256,73.116C114.838,73.146,116.907,75.264,116.876,77.845C116.846,80.427,114.728,82.494,112.146,82.464ZZM151.783,125.476C149.201,125.446,147.132,123.329,147.162,120.748C147.193,118.167,149.311,116.099,151.893,116.129C154.475,116.159,156.543,118.277,156.513,120.858C156.483,123.439,154.365,125.507,151.783,125.476ZZM152.034,104.207C149.452,104.177,147.383,102.059,147.413,99.478C147.444,96.897,149.562,94.829,152.144,94.860C154.726,94.890,156.794,97.007,156.764,99.588C156.734,102.170,154.616,104.238,152.034,104.207ZZM152.286,82.938C149.704,82.908,147.635,80.790,147.665,78.209C147.696,75.628,149.814,73.560,152.396,73.591C154.978,73.622,157.046,75.738,157.016,78.319C156.986,80.900,154.868,82.968,152.286,82.938ZZ" style="fill: rgb(106, 120, 101); fill-opacity: 1;"/></g></g></g></g></svg>