<svg xmlns:xlink="http://www.w3.org/1999/xlink" width="264" xmlns="http://www.w3.org/2000/svg" height="264" id="screenshot-389bbc61-ba80-80b6-8003-7a49d439b572" viewBox="0 0 264 264" style="-webkit-print-color-adjust: exact;" fill="none" version="1.1"><g id="shape-389bbc61-ba80-80b6-8003-7a49d439b572" rx="0" ry="0"><g id="shape-389bbc61-ba80-80b6-8003-7a44453d5cab"><g class="fills" id="fills-389bbc61-ba80-80b6-8003-7a44453d5cab"><rect rx="0" ry="0" x="0" y="0" transform="matrix(1.000000, 0.000000, 0.000000, 1.000000, 0.000000, 0.000000)" width="264" height="264" style="fill: rgb(220, 224, 235); fill-opacity: 1;"/></g></g><g id="shape-91b4c886-ebd8-80f1-8003-7b7ad009c13d" rx="0" ry="0" style="fill: rgb(0, 0, 0);"><g id="shape-91b4c886-ebd8-80f1-8003-7b7ad00a7ee8" rx="0" ry="0" style="fill: rgb(0, 0, 0);"><g id="shape-91b4c886-ebd8-80f1-8003-7b7ad00ac4fa"><g class="fills" id="fills-91b4c886-ebd8-80f1-8003-7b7ad00ac4fa"><path rx="0" ry="0" d="M124.543,102.442L164.133,79.861L160.622,73.701C159.918,72.465,158.751,71.560,157.379,71.184C156.008,70.809,154.543,70.995,153.308,71.700L143.996,77.008C141.956,73.708,137.670,72.617,134.300,74.538C130.930,76.460,129.687,80.704,131.488,84.140L123.013,88.971C120.440,90.440,119.545,93.716,121.012,96.289Z" style="fill: rgb(106, 120, 101); fill-opacity: 1;"/></g></g><g id="shape-91b4c886-ebd8-80f1-8003-7b7ad00beac8"><g class="fills" id="fills-91b4c886-ebd8-80f1-8003-7b7ad00beac8"><path rx="0" ry="0" d="M204.418,114.675L203.273,113.703L208.360,105.085C211.160,100.329,211.205,94.440,208.477,89.642L201.020,76.580C198.998,73.035,195.651,70.439,191.716,69.362C187.780,68.285,183.577,68.816,180.033,70.838L164.146,79.900L166.961,84.837L182.847,75.759C185.082,74.481,187.734,74.143,190.218,74.821C192.702,75.498,194.815,77.135,196.092,79.371L203.549,92.434C205.264,95.456,205.237,99.164,203.477,102.160L198.903,109.909L168.588,83.904L125.791,108.317L128.385,122.975C128.477,123.495,128.274,124.023,127.857,124.346C127.439,124.669,126.878,124.734,126.398,124.515L111.068,117.532C110.236,117.150,109.271,117.192,108.475,117.645L99.196,122.897L102.263,128.273L105.505,126.412C106.733,125.704,108.295,126.010,109.165,127.129L138.063,164.261C140.259,167.220,143.156,169.588,146.493,171.151L167.317,180.894C168.990,181.679,170.940,181.600,172.544,180.683L207.024,161.016C208.628,160.103,209.688,158.466,209.864,156.629L212.085,133.739C212.786,126.515,209.925,119.403,204.418,114.675ZZM203.870,150.476L198.215,149.924L199.052,141.297L204.706,141.845ZM205.361,135.104L199.703,134.556C200.089,130.563,198.511,126.632,195.472,124.013L191.747,120.920L195.378,116.549L199.155,119.684C203.608,123.509,205.923,129.261,205.361,135.104ZZ" style="fill: rgb(106, 120, 101); fill-opacity: 1;"/></g></g><g id="shape-91b4c886-ebd8-80f1-8003-7b7ad00ca192"><g class="fills" id="fills-91b4c886-ebd8-80f1-8003-7b7ad00ca192"><path rx="0" ry="0" d="M100.058,162.900L65.713,162.900C64.777,162.899,63.901,163.360,63.370,164.132C62.840,164.904,62.725,165.887,63.061,166.761L66.508,175.687L61.538,175.687C56.166,175.687,51.811,180.041,51.811,185.413L51.811,185.835C51.808,187.233,52.110,188.615,52.696,189.884L52.696,189.884C54.260,193.306,57.656,195.519,61.418,195.568L74.146,195.568L75.767,199.825L89.975,199.825L102.697,166.755C103.029,165.884,102.912,164.906,102.386,164.137C101.860,163.368,100.990,162.906,100.058,162.900ZZM61.359,189.891C59.207,189.774,57.521,187.997,57.517,185.841L57.517,185.420C57.521,183.185,59.332,181.374,61.567,181.370L68.680,181.370L71.955,189.891Z" style="fill: rgb(106, 120, 101); fill-opacity: 1;"/></g></g><g id="shape-91b4c886-ebd8-80f1-8003-7b7ad00cc4b6"><g class="fills" id="fills-91b4c886-ebd8-80f1-8003-7b7ad00cc4b6"><rect rx="0" ry="0" x="67.25675781249993" y="205.51812499999994" transform="matrix(1.000000, 0.000000, 0.000000, 1.000000, 0.000000, 0.000000)" width="31.254687500000045" height="5.683554687500077" style="fill: rgb(106, 120, 101); fill-opacity: 1;"/></g></g><g id="shape-91b4c886-ebd8-80f1-8003-7b7ad00d665d"><g class="fills" id="fills-91b4c886-ebd8-80f1-8003-7b7ad00d665d"><path rx="0" ry="0" d="M84.664,152.748C84.779,144.576,89.357,137.121,96.595,133.324L94.219,128.163C93.616,128.442,79.415,135.143,78.981,152.641L78.981,156.153L84.664,156.153Z" style="fill: rgb(106, 120, 101); fill-opacity: 1;"/></g></g></g></g></g></svg>