<svg xmlns:xlink="http://www.w3.org/1999/xlink" width="264" xmlns="http://www.w3.org/2000/svg" height="264" id="screenshot-389bbc61-ba80-80b6-8003-7a49d439b572" viewBox="0 0 264 264" style="-webkit-print-color-adjust: exact;" fill="none" version="1.1"><g id="shape-389bbc61-ba80-80b6-8003-7a49d439b572" rx="0" ry="0"><g id="shape-389bbc61-ba80-80b6-8003-7a44453d5cab"><g class="fills" id="fills-389bbc61-ba80-80b6-8003-7a44453d5cab"><rect rx="0" ry="0" x="0" y="0" transform="matrix(1.000000, 0.000000, 0.000000, 1.000000, 0.000000, 0.000000)" width="264" height="264" style="fill: rgb(220, 224, 235); fill-opacity: 1;"/></g></g><g id="shape-91b4c886-ebd8-80f1-8003-7b786e005db2" height="24" width="24" rx="0" ry="0" style="fill: rgb(0, 0, 0);"><g id="shape-91b4c886-ebd8-80f1-8003-7b786e01a672"><g class="fills" id="fills-91b4c886-ebd8-80f1-8003-7b786e01a672"><rect rx="1" ry="1" x="100.33333333333371" y="52.083333333333144" transform="matrix(1.000000, 0.000000, 0.000000, 1.000000, 0.000000, 0.000000)" width="64.3333333333336" height="16.0833333333332" style="fill: rgb(106, 120, 101); fill-opacity: 1;"/></g></g><g id="shape-91b4c886-ebd8-80f1-8003-7b786e04d53f"><g class="fills" id="fills-91b4c886-ebd8-80f1-8003-7b786e04d53f"><path rx="0" ry="0" d="M80.259,148.880C80.257,148.779,80.229,148.685,80.229,148.583C80.218,141.658,84.642,135.503,91.210,133.306C97.777,131.109,105.014,133.362,109.173,138.900C113.332,144.438,113.479,152.016,109.538,157.711C112.208,157.345,114.770,156.415,117.054,154.984L121.650,151.839C128.693,147.497,137.583,147.497,144.626,151.839L149.222,154.984C156.266,159.325,165.155,159.325,172.199,154.984L176.794,151.839C180.353,149.621,184.520,148.580,188.704,148.864C188.724,148.232,188.792,147.612,188.792,146.975C188.907,126.018,177.729,106.623,159.537,96.218C155.845,94.094,153.581,90.149,153.609,85.889L153.609,60.125L111.391,60.125L111.391,85.889C111.419,90.149,109.155,94.095,105.463,96.219C87.271,106.623,76.092,126.018,76.208,146.975C76.208,147.639,76.278,148.285,76.300,148.944C77.615,148.809,78.940,148.788,80.259,148.880ZZM152.604,116.417C159.266,116.417,164.667,121.817,164.667,128.479C164.667,135.141,159.266,140.542,152.604,140.542C145.942,140.542,140.542,135.141,140.542,128.479C140.542,121.817,145.942,116.417,152.604,116.417ZZM124.458,92.292C128.900,92.292,132.500,95.892,132.500,100.333C132.500,104.775,128.900,108.375,124.458,108.375C120.017,108.375,116.417,104.775,116.417,100.333C116.417,95.892,120.017,92.292,124.458,92.292ZZ" style="fill: rgb(106, 120, 101); fill-opacity: 1;"/></g></g><g id="shape-91b4c886-ebd8-80f1-8003-7b786e0600f2"><g class="fills" id="fills-91b4c886-ebd8-80f1-8003-7b786e0600f2"><path rx="0" ry="0" d="M144.563,64.146L144.563,80.710C144.555,89.890,149.552,98.343,157.597,102.763C177.804,113.811,188.390,136.790,183.655,159.328C178.920,181.866,159.982,198.642,137.038,200.625C135.530,200.778,134.016,200.854,132.500,200.854C130.934,200.853,129.368,200.771,127.810,200.610C104.900,198.564,86.025,181.770,81.329,159.253C76.633,136.736,87.221,113.797,107.403,102.763C115.448,98.343,120.445,89.890,120.438,80.710L120.438,64.146L144.563,64.146ZM156.625,52.083L108.375,52.083L108.375,80.710C108.382,85.486,105.785,89.886,101.601,92.188C76.763,105.776,63.738,134.013,69.523,161.727C75.309,189.441,98.543,210.109,126.743,212.626C130.571,213.014,134.429,213.014,138.257,212.626C166.457,210.109,189.691,189.442,195.477,161.727C201.262,134.013,188.237,105.776,163.399,92.188C159.215,89.886,156.618,85.486,156.625,80.710L156.625,52.083ZZ" style="fill: rgb(106, 120, 101); fill-opacity: 1;"/></g></g><g id="shape-91b4c886-ebd8-80f1-8003-7b786e0600f3"><g class="fills" id="fills-91b4c886-ebd8-80f1-8003-7b786e0600f3"><ellipse rx="8.041666666666856" ry="8.041666666666629" cx="140.54166666666686" cy="180.74999999999977" transform="matrix(1.000000, 0.000000, 0.000000, 1.000000, 0.000000, 0.000000)" style="fill: rgb(106, 120, 101); fill-opacity: 1;"/></g></g></g></g></svg>